<svg xmlns="http://www.w3.org/2000/svg" version="1.1" xmlns:xlink="http://www.w3.org/1999/xlink" xmlns:svgjs="http://svgjs.dev/svgjs" width="1000" height="1000"><g clip-path="url(#SvgjsClipPath1043)"><rect width="1000" height="1000" fill="#ffffff"></rect><g transform="matrix(20,0,0,20,100,100)"><svg xmlns="http://www.w3.org/2000/svg" version="1.1" xmlns:xlink="http://www.w3.org/1999/xlink" xmlns:svgjs="http://svgjs.dev/svgjs" width="40" height="40"><svg width="40" height="40" viewBox="0 0 40 40" fill="none" xmlns="http://www.w3.org/2000/svg">
<path d="M16.3655 5.30251C8.1928 9.62399 7.73147 13.9868 7.73147 13.9868L13.4049 24.7163C13.4049 24.7163 15.0681 19.718 22.039 16.0321C29.0098 12.3461 36.0001 12.7687 36.0001 12.7687L30.3266 2.03915C30.3266 2.03915 24.5382 0.981023 16.3655 5.30251Z" fill="#0D0D0D"></path>
<path d="M21.6687 35.8455C13.4505 39.4922 9.79825 37.1292 9.79825 37.1292L4.87549 26.0352C4.87549 26.0352 9.73629 27.8618 16.7459 24.7515C23.7556 21.6411 27.5964 15.9532 27.5964 15.9532L32.5192 27.0473C32.5192 27.0473 29.8869 32.1988 21.6687 35.8455Z" fill="#0D0D0D"></path>
</svg></svg></g></g><defs><clipPath id="SvgjsClipPath1043"><rect width="1000" height="1000" x="0" y="0" rx="350" ry="350"></rect></clipPath></defs></svg>