<svg width="300" height="75" viewBox="0 0 300 75" fill="none" xmlns="http://www.w3.org/2000/svg">
<path d="M0 33.5921C0 29.9694 0.526935 26.5773 1.5808 23.4157C2.63467 20.2541 4.18254 17.4876 6.22442 15.1164C8.33215 12.7452 10.9339 10.868 14.0296 9.48482C17.1254 8.10162 20.6822 7.41002 24.7001 7.41002C27.4665 7.41002 29.9035 7.70642 32.0113 8.29922C34.119 8.82616 35.9633 9.55069 37.5441 10.4728C39.1908 11.395 40.574 12.4488 41.6937 13.6344C42.8134 14.7542 43.7685 15.9398 44.5589 17.1912C46.3373 20.0894 47.49 23.3498 48.0169 26.9725H34.6789C34.4813 25.1941 34.0202 23.5803 33.2957 22.1313C32.5711 20.8798 31.5502 19.7601 30.2329 18.772C28.9155 17.784 27.0713 17.29 24.7001 17.29C22.5923 17.29 20.8139 17.7182 19.3648 18.5744C17.9158 19.4307 16.7302 20.6163 15.808 22.1313C14.9518 23.5803 14.326 25.2929 13.9308 27.2689C13.5356 29.2449 13.338 31.3526 13.338 33.5921C13.338 35.8316 13.5356 37.9393 13.9308 39.9153C14.326 41.8913 14.9518 43.6368 15.808 45.1517C16.7302 46.6008 17.9158 47.7535 19.3648 48.6097C20.8139 49.466 22.5923 49.8941 24.7001 49.8941C27.0713 49.8941 28.9155 49.4001 30.2329 48.4121C31.5502 47.3583 32.5711 46.2385 33.2957 45.0529C34.0202 43.6038 34.4813 41.9901 34.6789 40.2117H48.0169C47.49 43.8344 46.3373 47.0948 44.5589 49.9929C43.7685 51.1785 42.8134 52.3641 41.6937 53.5497C40.574 54.7353 39.1908 55.7892 37.5441 56.7113C35.9633 57.6335 34.119 58.358 32.0113 58.8849C29.9035 59.4777 27.4665 59.7742 24.7001 59.7742C20.6822 59.7742 17.1254 59.0826 14.0296 57.6993C10.9339 56.3161 8.33215 54.4389 6.22442 52.0677C4.18254 49.6965 2.63467 46.9301 1.5808 43.7685C0.526935 40.6069 0 37.2148 0 33.5921Z" fill="#121723"/>
<path d="M64.7466 8.89203H79.7642L97.5483 58.2922H83.321L71.959 23.2181L60.4982 58.2922H47.0613L64.7466 8.89203Z" fill="#121723"/>
<path d="M100.078 24.2061C100.275 21.0445 101 18.4098 102.251 16.302C103.569 14.1284 105.215 12.383 107.191 11.0656C109.233 9.74829 111.571 8.82616 114.206 8.29922C116.841 7.70642 119.574 7.41002 122.407 7.41002C125.371 7.41002 128.137 7.70642 130.706 8.29922C133.34 8.89202 135.613 9.88003 137.523 11.2632C139.433 12.5806 140.948 14.359 142.068 16.5984C143.188 18.772 143.747 21.4726 143.747 24.7001V58.2922H130.508V48.8073H130.014C129.224 50.8492 128.137 52.6605 126.754 54.2413C125.502 55.6245 123.823 56.9089 121.715 58.0945C119.673 59.2143 117.071 59.7742 113.91 59.7742C109.563 59.7742 105.907 58.6874 102.943 56.5137C100.045 54.3401 98.5957 50.9809 98.5957 46.4361C98.5957 44.1308 99.0238 42.1218 99.8801 40.4093C100.802 38.6968 101.988 37.2477 103.437 36.0621C104.886 34.8106 106.566 33.7897 108.476 32.9993C110.386 32.143 112.362 31.4514 114.404 30.9245C116.511 30.3975 118.52 29.9365 120.431 29.5413C122.341 29.1461 124.053 28.685 125.568 28.1581C127.083 27.5653 128.269 26.8737 129.125 26.0833C130.047 25.227 130.508 24.1073 130.508 22.7241C130.508 20.8139 129.817 19.266 128.433 18.0804C127.05 16.8948 125.041 16.302 122.407 16.302C116.544 16.302 113.515 18.9367 113.317 24.2061H100.078ZM130.508 33.3945C129.388 34.3825 127.841 35.1729 125.865 35.7657C123.889 36.3585 121.945 36.8854 120.035 37.3465C117.862 37.8734 115.985 38.7297 114.404 39.9153C112.889 41.035 112.131 42.6817 112.131 44.8553C112.131 46.7655 112.757 48.2475 114.009 49.3013C115.26 50.3552 116.94 50.8821 119.047 50.8821C121.287 50.8821 123.131 50.3223 124.58 49.2025C126.095 48.0169 127.281 46.5679 128.137 44.8553C128.993 43.1428 129.586 41.2656 129.915 39.2237C130.311 37.1818 130.508 35.2388 130.508 33.3945Z" fill="#121723"/>
<path d="M151.955 0H191.475V3.95201H151.955V0ZM194.735 58.2922H181.891V50.1905H181.397C180.475 51.9689 179.322 53.5497 177.939 54.9329C176.688 56.1844 175.107 57.3041 173.197 58.2922C171.353 59.2802 169.047 59.7742 166.281 59.7742C162.856 59.7742 159.991 59.2472 157.685 58.1933C155.446 57.1395 153.634 55.6904 152.251 53.8461C150.934 52.0019 150.012 49.8283 149.485 47.3253C148.958 44.8224 148.694 42.1548 148.694 39.3225V8.89203H161.934V36.4573C161.934 40.7386 162.559 43.9002 163.811 45.9421C165.128 47.9181 167.368 48.9061 170.529 48.9061C174.086 48.9061 176.787 47.7864 178.631 45.5469C180.475 43.2416 181.397 39.586 181.397 34.5801V8.89203H194.735V58.2922Z" fill="#121723"/>
<path d="M249.038 49.5977C249.038 53.1545 248.544 56.4479 247.556 59.4778C246.634 62.5735 245.152 65.2411 243.11 67.4806C241.068 69.72 238.5 71.4655 235.404 72.717C232.308 73.9685 228.62 74.5942 224.338 74.5942C218.674 74.5942 214.261 73.7379 211.099 72.0254C207.937 70.3787 205.599 68.5344 204.084 66.4926C202.372 64.0555 201.351 61.322 201.021 58.2922H214.359C214.557 59.4778 215.051 60.5646 215.841 61.5526C216.5 62.343 217.488 63.0675 218.805 63.7262C220.123 64.3848 221.967 64.7142 224.338 64.7142C228.62 64.7142 231.584 63.4298 233.23 60.861C234.877 58.2921 235.7 54.8671 235.7 50.5857V49.2025H235.305C234.383 50.454 233.23 51.5408 231.847 52.4629C230.662 53.3192 229.147 54.1096 227.302 54.8341C225.458 55.4928 223.219 55.8221 220.584 55.8221C217.027 55.8221 213.898 55.1635 211.198 53.8461C208.497 52.5288 206.258 50.7504 204.479 48.5109C202.701 46.2714 201.351 43.7026 200.429 40.8045C199.572 37.9064 199.144 34.8436 199.144 31.6161C199.144 28.4545 199.572 25.4246 200.429 22.5265C201.351 19.5625 202.701 16.9607 204.479 14.7212C206.258 12.4818 208.497 10.7034 211.198 9.38602C213.898 8.06869 217.027 7.41002 220.584 7.41002C223.35 7.41002 225.656 7.83815 227.5 8.69442C229.41 9.48483 230.991 10.407 232.242 11.4608C233.626 12.6464 234.778 13.9967 235.7 15.5116H236.194V8.89203H249.038V49.5977ZM236.194 31.6161C236.194 27.6641 235.239 24.3049 233.329 21.5385C231.419 18.7062 228.422 17.29 224.338 17.29C220.255 17.29 217.258 18.7062 215.347 21.5385C213.437 24.3049 212.482 27.6641 212.482 31.6161C212.482 35.634 213.437 39.0261 215.347 41.7925C217.258 44.5589 220.255 45.9421 224.338 45.9421C228.422 45.9421 231.419 44.5589 233.329 41.7925C235.239 39.0261 236.194 35.634 236.194 31.6161Z" fill="#121723"/>
<path d="M300 58.2922H287.156V50.1905H286.662C285.74 51.9689 284.587 53.5497 283.204 54.9329C281.952 56.1844 280.372 57.3041 278.462 58.2922C276.617 59.2802 274.312 59.7742 271.546 59.7742C268.12 59.7742 265.255 59.2472 262.95 58.1933C260.71 57.1395 258.899 55.6904 257.516 53.8461C256.199 52.0019 255.276 49.8283 254.749 47.3253C254.223 44.8224 253.959 42.1548 253.959 39.3225V8.89203H267.198V36.4573C267.198 40.7386 267.824 43.9002 269.076 45.9421C270.393 47.9181 272.632 48.9061 275.794 48.9061C279.351 48.9061 282.051 47.7864 283.896 45.5469C285.74 43.2416 286.662 39.586 286.662 34.5801V8.89203H300V58.2922Z" fill="#121723"/>
</svg>
