<svg width="420" height="43" viewBox="0 0 420 43" fill="none" xmlns="http://www.w3.org/2000/svg">
<path d="M19.5309 6.23644C10.5182 8.29542 8.94344 12.3901 8.94344 12.3901L11.6466 24.2225C11.6466 24.2225 14.5468 19.825 22.2341 18.0688C29.9214 16.3126 36.5641 18.53 36.5641 18.53L33.8609 6.69768C33.8609 6.69768 28.5436 4.17746 19.5309 6.23644Z" fill="#137EFE"/>
<path d="M16.7483 37.1113C7.86631 38.5067 4.95008 35.279 4.95008 35.279L3.06641 23.2889C3.06641 23.2889 7.28881 26.3113 14.8647 25.1211C22.4405 23.931 27.6226 19.431 27.6226 19.431L29.5063 31.4212C29.5063 31.4212 25.6303 35.7159 16.7483 37.1113Z" fill="#137EFE"/>
<path d="M405.93 10.5041C407.778 10.6361 409.523 10.9295 411.166 11.3841C412.808 11.8241 414.238 12.4988 415.456 13.4081C416.688 14.3028 417.641 15.4688 418.316 16.9061C419.005 18.3435 419.313 20.1255 419.24 22.2521C419.298 24.0561 419.086 25.6108 418.602 26.9161C418.118 28.2068 417.436 29.2921 416.556 30.1721C415.69 31.0521 414.649 31.7635 413.432 32.3061C412.229 32.8341 410.931 33.2375 409.538 33.5161C408.159 33.7948 406.722 33.9781 405.226 34.0661C403.73 34.1395 402.248 34.1761 400.782 34.1761V36.9261H392.004V34.1761C390.537 34.1761 389.056 34.1395 387.56 34.0661C386.064 33.9781 384.619 33.7948 383.226 33.5161C381.847 33.2375 380.549 32.8341 379.332 32.3061C378.129 31.7635 377.088 31.0521 376.208 30.1721C375.342 29.2921 374.668 28.2068 374.184 26.9161C373.7 25.6108 373.487 24.0561 373.546 22.2521C373.487 20.4481 373.7 18.9008 374.184 17.6101C374.668 16.3048 375.342 15.2121 376.208 14.3321C377.088 13.4521 378.129 12.7481 379.332 12.2201C380.549 11.6921 381.847 11.2888 383.226 11.0101C384.619 10.7315 386.064 10.5555 387.56 10.4821C389.056 10.3941 390.537 10.3501 392.004 10.3501V7.57812H400.782V10.3501C401.926 10.3648 402.93 10.3868 403.796 10.4161C404.661 10.4308 405.372 10.4601 405.93 10.5041ZM392.004 27.2681V17.2361C391.329 17.2361 390.632 17.2581 389.914 17.3021C389.195 17.3315 388.484 17.3975 387.78 17.5001C387.09 17.6028 386.43 17.7495 385.8 17.9401C385.169 18.1161 384.604 18.3581 384.106 18.6661C383.622 18.9741 383.218 19.3555 382.896 19.8101C382.588 20.2501 382.404 20.7781 382.346 21.3941C382.155 22.5528 382.265 23.5135 382.676 24.2761C383.101 25.0241 383.724 25.6181 384.546 26.0581C385.367 26.4981 386.335 26.8061 387.45 26.9821C388.579 27.1581 389.745 27.2535 390.948 27.2681H392.004ZM410.44 23.1321C410.586 22.2668 410.564 21.5261 410.374 20.9101C410.183 20.2795 409.86 19.7441 409.406 19.3041C408.966 18.8641 408.423 18.5121 407.778 18.2481C407.132 17.9695 406.421 17.7568 405.644 17.6101C404.881 17.4488 404.082 17.3461 403.246 17.3021C402.41 17.2435 401.588 17.2215 400.782 17.2361V27.2681C401.456 27.2681 402.153 27.2535 402.872 27.2241C403.59 27.1801 404.294 27.1141 404.984 27.0261C405.688 26.9235 406.355 26.7768 406.986 26.5861C407.616 26.3955 408.174 26.1535 408.658 25.8601C409.156 25.5521 409.56 25.1781 409.868 24.7381C410.19 24.2835 410.381 23.7481 410.44 23.1321Z" fill="#292B32"/>
<path d="M361.552 9.62402C362.902 9.62402 364.17 9.88069 365.358 10.394C366.561 10.9074 367.602 11.6114 368.482 12.506C369.377 13.386 370.081 14.4274 370.594 15.63C371.108 16.818 371.364 18.0867 371.364 19.436C371.364 20.8 371.108 22.076 370.594 23.264C370.081 24.452 369.377 25.4934 368.482 26.388C367.602 27.268 366.561 27.9647 365.358 28.478C364.17 28.9914 362.902 29.248 361.552 29.248H345.8V35.452H337.022V9.62402H361.552ZM362.63 19.436C362.63 19.0547 362.557 18.7027 362.41 18.38C362.264 18.0427 362.066 17.7494 361.816 17.5C361.567 17.2507 361.274 17.0527 360.936 16.906C360.614 16.7594 360.262 16.686 359.88 16.686H345.8V22.208H359.88C360.262 22.208 360.614 22.1347 360.936 21.988C361.274 21.8414 361.567 21.6434 361.816 21.394C362.066 21.1447 362.264 20.8514 362.41 20.514C362.557 20.1767 362.63 19.8174 362.63 19.436Z" fill="#292B32"/>
<path d="M308.439 15.6742V19.5242H330.659V25.5522H308.439V29.4022H331.957V35.4522H299.661V35.4082V9.62416H331.957V15.6742H308.439ZM321.287 6.98416C320.876 6.95482 320.488 6.89616 320.121 6.80816C319.769 6.70549 319.461 6.55149 319.197 6.34616C318.933 6.14082 318.735 5.87682 318.603 5.55415C318.471 5.23149 318.412 4.82816 318.427 4.34416C318.383 3.61082 318.53 3.06082 318.867 2.69415C319.219 2.31282 319.659 2.04882 320.187 1.90215C320.715 1.74082 321.287 1.66016 321.903 1.66016C322.519 1.66016 323.084 1.67482 323.597 1.70416C324.022 1.73349 324.411 1.79949 324.763 1.90215C325.115 2.00482 325.423 2.15882 325.687 2.36416C325.951 2.55482 326.149 2.81149 326.281 3.13415C326.428 3.45682 326.494 3.86016 326.479 4.34416C326.523 5.07749 326.369 5.63482 326.017 6.01616C325.68 6.38282 325.247 6.64682 324.719 6.80816C324.191 6.95482 323.612 7.02816 322.981 7.02816C322.365 7.02816 321.8 7.01349 321.287 6.98416ZM308.703 6.98416C308.278 6.95482 307.882 6.89616 307.515 6.80816C307.163 6.70549 306.855 6.55149 306.591 6.34616C306.327 6.14082 306.122 5.87682 305.975 5.55415C305.843 5.23149 305.784 4.82816 305.799 4.34416C305.755 3.61082 305.902 3.06082 306.239 2.69415C306.591 2.31282 307.031 2.04882 307.559 1.90215C308.102 1.74082 308.681 1.66016 309.297 1.66016C309.928 1.66016 310.507 1.67482 311.035 1.70416C311.46 1.73349 311.849 1.79949 312.201 1.90215C312.568 2.00482 312.876 2.15882 313.125 2.36416C313.389 2.55482 313.594 2.81149 313.741 3.13415C313.888 3.45682 313.946 3.86016 313.917 4.34416C313.961 5.07749 313.807 5.63482 313.455 6.01616C313.118 6.38282 312.678 6.64682 312.135 6.80816C311.607 6.95482 311.028 7.02816 310.397 7.02816C309.781 7.02816 309.216 7.01349 308.703 6.98416Z" fill="#292B32"/>
<path d="M279.91 16.3344C279.045 16.3344 278.172 16.3711 277.292 16.4444C276.412 16.5031 275.562 16.6204 274.74 16.7964C273.934 16.9577 273.171 17.1851 272.452 17.4784C271.748 17.7717 271.125 18.1457 270.582 18.6004C270.054 19.0551 269.629 19.6124 269.306 20.2724C268.998 20.9177 268.837 21.6804 268.822 22.5604C268.852 23.5431 269.05 24.3791 269.416 25.0684C269.798 25.7577 270.296 26.3371 270.912 26.8064C271.528 27.2611 272.232 27.6204 273.024 27.8844C273.816 28.1484 274.638 28.3464 275.488 28.4784C276.339 28.6104 277.19 28.6984 278.04 28.7424C278.891 28.7717 279.683 28.7864 280.416 28.7864C280.754 28.7864 281.238 28.7864 281.868 28.7864C282.499 28.7717 283.218 28.7424 284.024 28.6984C284.846 28.6544 285.726 28.5957 286.664 28.5224C287.618 28.4491 288.586 28.3537 289.568 28.2364C290.566 28.1044 291.548 27.9431 292.516 27.7524C293.499 27.5471 294.416 27.3124 295.266 27.0484V33.9124C292.802 34.6311 290.287 35.1371 287.72 35.4304C285.154 35.7091 282.55 35.8264 279.91 35.7824C279.661 35.7824 279.419 35.7824 279.184 35.7824C278.964 35.7971 278.73 35.8044 278.48 35.8044C276.984 35.8044 275.488 35.7384 273.992 35.6064C272.496 35.4891 271.066 35.2617 269.702 34.9244C268.338 34.5724 267.062 34.0957 265.874 33.4944C264.701 32.8784 263.674 32.0791 262.794 31.0964C261.929 30.1137 261.247 28.9257 260.748 27.5324C260.264 26.1391 260.022 24.4891 260.022 22.5824V22.5604C260.022 20.6391 260.272 18.9817 260.77 17.5884C261.269 16.1804 261.951 14.9851 262.816 14.0024C263.696 13.0197 264.73 12.2277 265.918 11.6264C267.121 11.0104 268.404 10.5337 269.768 10.1964C271.147 9.84441 272.592 9.60974 274.102 9.49241C275.613 9.37507 277.116 9.31641 278.612 9.31641C280.064 9.31641 281.48 9.33841 282.858 9.38241C284.252 9.42641 285.63 9.51441 286.994 9.64641C288.358 9.77841 289.722 9.96907 291.086 10.2184C292.45 10.4677 293.844 10.7977 295.266 11.2084V18.0944C294.518 17.8597 293.726 17.6544 292.89 17.4784C292.054 17.3024 291.204 17.1557 290.338 17.0384C289.488 16.9064 288.637 16.7964 287.786 16.7084C286.936 16.6204 286.122 16.5544 285.344 16.5104C283.526 16.3931 281.714 16.3344 279.91 16.3344Z" fill="#292B32"/>
<path d="M245.14 16.554H232.512C232.336 22.6993 231.625 26.7033 230.378 28.566H245.14V16.554ZM250.838 41.128V35.452H225.384V41.128H216.606V28.566H221.028C221.703 27.7446 222.224 26.7326 222.59 25.53C222.957 24.3273 223.228 22.9413 223.404 21.372C223.58 19.8026 223.683 18.0426 223.712 16.092C223.742 14.1413 223.756 12 223.756 9.66797H253.896V28.566H259.616V41.128H250.838Z" fill="#292B32"/>
<path d="M213.709 9.66837V35.4524H204.931V20.0744L185.637 35.4524H176.925V9.66837H185.703V25.0684L204.997 9.66837H213.709ZM204.909 6.45637H185.725V2.27637H204.909V6.45637Z" fill="#292B32"/>
<path d="M153.578 16.862L148.364 24.738H158.77L153.578 16.862ZM141.28 35.452H131.292L147.99 9.66797H159.144L175.864 35.452H165.876L163.346 31.624H143.81L141.28 35.452Z" fill="#292B32"/>
<path d="M115.015 9.66797L131.735 35.452H121.747L109.449 16.862L97.1511 35.452H87.1631L103.861 9.66797H115.015Z" fill="#292B32"/>
<path d="M71.2581 16.3344C70.3928 16.3344 69.5201 16.3711 68.6401 16.4444C67.7601 16.5031 66.9095 16.6204 66.0881 16.7964C65.2815 16.9577 64.5188 17.1851 63.8001 17.4784C63.0961 17.7717 62.4728 18.1457 61.9301 18.6004C61.4021 19.0551 60.9768 19.6124 60.6541 20.2724C60.3461 20.9177 60.1848 21.6804 60.1701 22.5604C60.1995 23.5431 60.3975 24.3791 60.7641 25.0684C61.1455 25.7577 61.6441 26.3371 62.2601 26.8064C62.8761 27.2611 63.5801 27.6204 64.3721 27.8844C65.1641 28.1484 65.9855 28.3464 66.8361 28.4784C67.6868 28.6104 68.5375 28.6984 69.3881 28.7424C70.2388 28.7717 71.0308 28.7864 71.7641 28.7864C72.1015 28.7864 72.5855 28.7864 73.2161 28.7864C73.8468 28.7717 74.5655 28.7424 75.3721 28.6984C76.1935 28.6544 77.0735 28.5957 78.0121 28.5224C78.9655 28.4491 79.9335 28.3537 80.9161 28.2364C81.9135 28.1044 82.8961 27.9431 83.8641 27.7524C84.8468 27.5471 85.7635 27.3124 86.6141 27.0484V33.9124C84.1501 34.6311 81.6348 35.1371 79.0681 35.4304C76.5015 35.7091 73.8981 35.8264 71.2581 35.7824C71.0088 35.7824 70.7668 35.7824 70.5321 35.7824C70.3121 35.7971 70.0775 35.8044 69.8281 35.8044C68.3321 35.8044 66.8361 35.7384 65.3401 35.6064C63.8441 35.4891 62.4141 35.2617 61.0501 34.9244C59.6861 34.5724 58.4101 34.0957 57.2221 33.4944C56.0488 32.8784 55.0221 32.0791 54.1421 31.0964C53.2768 30.1137 52.5948 28.9257 52.0961 27.5324C51.6121 26.1391 51.3701 24.4891 51.3701 22.5824V22.5604C51.3701 20.6391 51.6195 18.9817 52.1181 17.5884C52.6168 16.1804 53.2988 14.9851 54.1641 14.0024C55.0441 13.0197 56.0781 12.2277 57.2661 11.6264C58.4688 11.0104 59.7521 10.5337 61.1161 10.1964C62.4948 9.84441 63.9395 9.60974 65.4501 9.49241C66.9608 9.37507 68.4641 9.31641 69.9601 9.31641C71.4121 9.31641 72.8274 9.33841 74.2061 9.38241C75.5994 9.42641 76.9781 9.51441 78.3421 9.64641C79.7061 9.77841 81.0701 9.96907 82.4341 10.2184C83.7981 10.4677 85.1914 10.7977 86.6141 11.2084V18.0944C85.8661 17.8597 85.0741 17.6544 84.2381 17.4784C83.4021 17.3024 82.5515 17.1557 81.6861 17.0384C80.8355 16.9064 79.9848 16.7964 79.1341 16.7084C78.2835 16.6204 77.4695 16.5544 76.6921 16.5104C74.8735 16.3931 73.0621 16.3344 71.2581 16.3344Z" fill="#292B32"/>
</svg>
