<svg width="50" height="50" viewBox="0 0 50 50" fill="none" xmlns="http://www.w3.org/2000/svg">
<g clip-path="url(#clip0_431_1255)">
<rect width="50" height="50" rx="13.3333" fill="white"/>
<path d="M24.5309 10.2364C15.5182 12.2954 13.9434 16.3901 13.9434 16.3901L16.6466 28.2225C16.6466 28.2225 19.5468 23.825 27.2341 22.0688C34.9214 20.3126 41.5641 22.53 41.5641 22.53L38.8609 10.6977C38.8609 10.6977 33.5436 8.17746 24.5309 10.2364Z" fill="#137EFE"/>
<path d="M21.7483 41.1113C12.8663 42.5067 9.95008 39.279 9.95008 39.279L8.06641 27.2889C8.06641 27.2889 12.2888 30.3113 19.8647 29.1211C27.4405 27.931 32.6226 23.431 32.6226 23.431L34.5063 35.4212C34.5063 35.4212 30.6303 39.7159 21.7483 41.1113Z" fill="#137EFE"/>
</g>
<rect x="0.5" y="0.5" width="49" height="49" rx="13.5" stroke="#E7E7E7"/>
<defs>
<clipPath id="clip0_431_1255">
<rect width="50" height="50" rx="14" fill="white"/>
</clipPath>
</defs>
</svg>
