<svg width="672" height="1080" viewBox="0 0 672 1080" fill="none" xmlns="http://www.w3.org/2000/svg">
<path d="M335.001 372.666C335.001 280.251 260.007 205.334 167.5 205.334C74.9938 205.334 0 280.251 0 372.666C0 465.081 74.9938 540 167.5 540C260.007 540 335.001 465.083 335.001 372.666ZM502.5 372.666C595.008 372.666 670 297.749 670 205.334C670 112.919 595.008 38 502.5 38C409.991 38 335.001 112.917 335.001 205.334C335.001 297.751 409.993 372.666 502.5 372.666ZM670 540C670 447.585 595.008 372.666 502.5 372.666C409.991 372.666 335.001 447.585 335.001 540C335.001 632.415 409.993 707.334 502.5 707.334C595.006 707.334 670 632.415 670 540ZM335.001 874.666C335.001 967.083 409.993 1042 502.5 1042C595.006 1042 670 967.083 670 874.666C670 782.249 595.008 707.334 502.5 707.334C409.991 707.334 335.001 782.251 335.001 874.666ZM335.001 540H0C0 631.796 75.6149 707.332 167.502 707.332C259.39 707.332 335.001 631.796 335.001 540ZM167.502 707.334C75.6149 707.334 0.00191712 782.87 0 874.666H335.001C335.001 782.872 259.388 707.334 167.502 707.334ZM0 1042H335.001C335.001 950.202 259.388 874.666 167.502 874.664C75.6169 874.662 0.00191712 950.202 0 1042ZM167.502 38C75.6149 38 0.00191712 113.536 0 205.332H335.001C335.001 113.538 259.388 38 167.502 38Z" fill="black"/>
</svg>
