<svg width="170" height="100" viewBox="0 0 170 100" fill="none" xmlns="http://www.w3.org/2000/svg">
<rect width="170" height="100" fill="#171717"/>
<path d="M45.4991 80.8053C40.9735 80.8053 36.9561 80.0095 33.4469 78.4179C29.9569 76.8071 27.2051 74.5922 25.1916 71.7733C23.1973 68.9545 22.1809 65.7137 22.1426 62.051H37.6752C37.7328 64.0837 38.519 65.7041 40.0339 66.9122C41.568 68.1203 43.3897 68.7243 45.4991 68.7243C47.1291 68.7243 48.5673 68.3792 49.8137 67.6888C51.0602 66.9793 52.0382 65.9822 52.7477 64.6974C53.4572 63.4126 53.8024 61.9168 53.7832 60.2101C53.8024 58.4843 53.4572 56.9886 52.7477 55.7229C52.0382 54.4381 51.0602 53.4506 49.8137 52.7602C48.5673 52.0507 47.1291 51.6959 45.4991 51.6959C43.8116 51.6959 42.2488 52.1082 40.8105 52.9328C39.3915 53.7382 38.3464 54.86 37.6752 56.2982L23.6383 53.5368L25.9395 21.0908H65.519V33.8621H39.0559L37.9054 46.8635H38.2505C39.171 45.0802 40.7626 43.6036 43.0254 42.4339C45.2882 41.2449 47.9153 40.6505 50.9068 40.6505C54.416 40.6505 57.5417 41.4655 60.2839 43.0954C63.0453 44.7254 65.2218 46.9786 66.8134 49.855C68.4242 52.7123 69.22 56.0106 69.2008 59.7499C69.22 63.8536 68.242 67.4971 66.2669 70.6803C64.3109 73.8444 61.5591 76.3277 58.0115 78.1302C54.464 79.9136 50.2931 80.8053 45.4991 80.8053Z" fill="url(#paint0_linear_624_1165)"/>
<path d="M33.4469 78.4181C36.9561 80.0098 40.9735 80.8056 45.4991 80.8056C50.2931 80.8056 54.464 79.9139 58.0115 78.1305C61.5591 76.3279 64.3109 73.8446 66.2669 70.6806C68.242 67.4973 69.22 63.8539 69.2008 59.7502C69.22 56.0108 68.4242 52.7125 66.8134 49.8553C65.2218 46.9789 63.0453 44.7257 60.2839 43.0957C46.111 39.972 39.3061 50.596 37.6752 56.2985C38.3464 54.8603 39.3915 53.7384 40.8105 52.933C42.2488 52.1085 43.8116 51.6962 45.4991 51.6962C47.1291 51.6962 48.5673 52.0509 49.8137 52.7605C51.0602 53.4508 52.0382 54.4384 52.7477 55.7232C53.4572 56.9888 53.8024 58.4845 53.7832 60.2104C53.8024 61.9171 53.4572 63.4128 52.7477 64.6976C52.0382 65.9824 51.0602 66.9796 49.8137 67.6891C48.5673 68.3794 47.1291 68.7246 45.4991 68.7246C43.3897 68.7246 41.568 68.1206 40.0339 66.9125C38.519 65.7044 37.7328 64.084 37.6752 62.0513H22.1426C22.1809 65.7139 23.1973 68.9547 25.1916 71.7736C27.2051 74.5925 29.9569 76.8073 33.4469 78.4181Z" fill="url(#paint1_radial_624_1165)"/>
<path d="M90.0031 81.6104C84.653 81.5913 80.0315 80.3544 76.1388 77.8999C72.246 75.4453 69.2449 71.9073 67.1356 67.2859C65.0262 62.6644 63.9811 57.1225 64.0003 50.6602C64.0194 44.1786 65.0741 38.6751 67.1643 34.1495C69.2737 29.6239 72.2652 26.1818 76.1388 23.8232C80.0315 21.4645 84.653 20.2852 90.0031 20.2852C95.3532 20.2852 99.9747 21.4741 103.867 23.8519C107.76 26.2106 110.761 29.6527 112.871 34.1783C114.98 38.7038 116.025 44.1978 116.006 50.6602C116.006 57.1609 114.951 62.7219 112.842 67.3434C110.733 71.9648 107.731 75.5028 103.839 77.9574C99.9651 80.3928 95.3532 81.6104 90.0031 81.6104ZM90.0031 68.609C92.7645 68.609 95.0272 67.1708 96.7915 64.2944C98.5748 61.3988 99.4569 56.854 99.4378 50.6602C99.4378 46.614 99.0351 43.3061 98.2297 40.7365C97.4243 38.1669 96.3121 36.2685 94.893 35.0412C93.474 33.7947 91.844 33.1715 90.0031 33.1715C87.2417 33.1715 84.9885 34.5714 83.2435 37.3711C81.4985 40.1708 80.6068 44.6005 80.5684 50.6602C80.5493 54.783 80.9424 58.1772 81.7478 60.8427C82.5532 63.489 83.6654 65.445 85.0844 66.7106C86.5226 67.9762 88.1622 68.609 90.0031 68.609Z" fill="white"/>
<path d="M90.0031 81.6104C84.653 81.5913 80.0315 80.3544 76.1388 77.8999C72.246 75.4453 69.2449 71.9073 67.1356 67.2859C65.0262 62.6644 63.9811 57.1225 64.0003 50.6602C64.0194 44.1786 65.0741 38.6751 67.1643 34.1495C69.2737 29.6239 72.2652 26.1818 76.1388 23.8232C80.0315 21.4645 84.653 20.2852 90.0031 20.2852C95.3532 20.2852 99.9747 21.4741 103.867 23.8519C107.76 26.2106 110.761 29.6527 112.871 34.1783C114.98 38.7038 116.025 44.1978 116.006 50.6602C116.006 57.1609 114.951 62.7219 112.842 67.3434C110.733 71.9648 107.731 75.5028 103.839 77.9574C99.9651 80.3928 95.3532 81.6104 90.0031 81.6104ZM90.0031 68.609C92.7645 68.609 95.0272 67.1708 96.7915 64.2944C98.5748 61.3988 99.4569 56.854 99.4378 50.6602C99.4378 46.614 99.0351 43.3061 98.2297 40.7365C97.4243 38.1669 96.3121 36.2685 94.893 35.0412C93.474 33.7947 91.844 33.1715 90.0031 33.1715C87.2417 33.1715 84.9885 34.5714 83.2435 37.3711C81.4985 40.1708 80.6068 44.6005 80.5684 50.6602C80.5493 54.783 80.9424 58.1772 81.7478 60.8427C82.5532 63.489 83.6654 65.445 85.0844 66.7106C86.5226 67.9762 88.1622 68.609 90.0031 68.609Z" fill="url(#paint2_linear_624_1165)"/>
<path d="M103.867 23.8519C99.9747 21.4741 95.3532 20.2852 90.0031 20.2852C90.0031 20.2852 92.286 21.5 94.893 27.5C97.5 33.5 98 37 98 37C99 41.5 99.4378 46.614 99.4378 50.6602C99.4569 56.854 98.5748 61.3988 96.7915 64.2944C93.6596 72.3774 91.7319 76.2362 88 81.5442C88.6559 81.5859 89.3236 81.608 90.0031 81.6104C95.3532 81.6104 99.9651 80.3928 103.839 77.9574C107.731 75.5028 110.733 71.9648 112.842 67.3434C114.951 62.7219 116.006 57.1609 116.006 50.6602C116.025 44.1978 114.98 38.7038 112.871 34.1783C110.761 29.6527 107.76 26.2106 103.867 23.8519Z" fill="url(#paint3_radial_624_1165)"/>
<path d="M126.555 77.3516C126.555 74.5586 127.604 72.1296 129.703 70.0645C131.667 68.1517 134.13 67.1953 137.092 67.1953C140.02 67.1953 142.483 68.1517 144.48 70.0645C146.579 72.0957 147.629 74.5247 147.629 77.3516C147.629 80.1445 146.579 82.5736 144.48 84.6387C142.517 86.5514 140.054 87.5078 137.092 87.5078C134.163 87.5078 131.701 86.5514 129.703 84.6387C127.604 82.6074 126.555 80.1784 126.555 77.3516ZM140.951 81.6426C142.018 80.7285 142.551 79.2982 142.551 77.3516C142.551 75.4049 142.018 73.9831 140.951 73.0859C139.902 72.1719 138.615 71.7148 137.092 71.7148C135.568 71.7148 134.273 72.1719 133.207 73.0859C132.158 73.9831 131.633 75.4049 131.633 77.3516C131.633 79.2982 132.158 80.7285 133.207 81.6426C134.273 82.5397 135.568 82.9883 137.092 82.9883C138.615 82.9883 139.902 82.5397 140.951 81.6426ZM100.809 58.3086C100.809 55.5156 101.858 53.0866 103.957 51.0215C105.921 49.1087 108.383 48.1523 111.346 48.1523C114.274 48.1523 116.737 49.1087 118.734 51.0215C120.833 53.0527 121.883 55.4818 121.883 58.3086C121.883 61.1016 120.833 63.5306 118.734 65.5957C116.771 67.5085 114.308 68.4648 111.346 68.4648C108.417 68.4648 105.954 67.5085 103.957 65.5957C101.858 63.5645 100.809 61.1354 100.809 58.3086ZM115.205 62.5996C116.271 61.6855 116.805 60.2552 116.805 58.3086C116.805 56.362 116.271 54.9401 115.205 54.043C114.156 53.1289 112.869 52.6719 111.346 52.6719C109.822 52.6719 108.527 53.1289 107.461 54.043C106.411 54.9401 105.887 56.362 105.887 58.3086C105.887 60.2552 106.411 61.6855 107.461 62.5996C108.527 63.4967 109.822 63.9453 111.346 63.9453C112.869 63.9453 114.156 63.4967 115.205 62.5996ZM117.008 88.0156L113.428 86.2891L131.43 47.6445H131.684L135.264 49.3711L117.262 88.0156H117.008Z" fill="white"/>
<rect y="43" width="151" height="57" fill="url(#paint4_linear_624_1165)"/>
<defs>
<linearGradient id="paint0_linear_624_1165" x1="18.5" y1="16.5" x2="64.5" y2="84" gradientUnits="userSpaceOnUse">
<stop stop-color="#FF3C3F"/>
<stop offset="1" stop-color="#FF44C6"/>
</linearGradient>
<radialGradient id="paint1_radial_624_1165" cx="0" cy="0" r="1" gradientTransform="matrix(31 46.5 -49.3191 11.3208 38 41)" gradientUnits="userSpaceOnUse">
<stop stop-color="#5420FF"/>
<stop offset="0.663462" stop-color="#EF3150"/>
<stop offset="1" stop-color="#FF42A5"/>
</radialGradient>
<linearGradient id="paint2_linear_624_1165" x1="59.9745" y1="15.5705" x2="105.86" y2="88.0267" gradientUnits="userSpaceOnUse">
<stop stop-color="#FF3C3F"/>
<stop offset="1" stop-color="#FF44C6"/>
</linearGradient>
<radialGradient id="paint3_radial_624_1165" cx="0" cy="0" r="1" gradientTransform="matrix(60.5 92 -31.0571 38.5415 91.5 17.5)" gradientUnits="userSpaceOnUse">
<stop stop-color="#FF42A5"/>
<stop offset="0.668269" stop-color="#5420FF"/>
<stop offset="1" stop-color="#FF42A5"/>
</radialGradient>
<linearGradient id="paint4_linear_624_1165" x1="76" y1="58" x2="75.5" y2="100" gradientUnits="userSpaceOnUse">
<stop stop-color="#171717" stop-opacity="0"/>
<stop offset="1" stop-color="#171717"/>
</linearGradient>
</defs>
</svg>
